<svg viewBox="0 0 80 80" fill="none" xmlns="http://www.w3.org/2000/svg">
  <!-- Techo -->
  <path d="M10 36 L40 10 L70 36" stroke="#8DC63F" stroke-width="2.5" stroke-linecap="round" stroke-linejoin="round" fill="rgba(141,198,63,0.1)"/>
  
  <!-- Paredes -->
  <path d="M18 36 L18 68 L62 68 L62 36" stroke="#8DC63F" stroke-width="2" stroke-linecap="round" stroke-linejoin="round" fill="rgba(141,198,63,0.05)"/>

  <!-- Puerta -->
  <rect x="33" y="50" width="14" height="18" rx="2" fill="rgba(0,229,160,0.1)" stroke="#00e5a0" stroke-width="1.5"/>
  <circle cx="44" cy="59" r="1.5" fill="#00e5a0"/>

  <!-- Ventana -->
  <rect x="22" y="42" width="10" height="10" rx="1.5" fill="rgba(250,205,21,0.1)" stroke="#facd15" stroke-width="1.5"/>
  <line x1="27" y1="42" x2="27" y2="52" stroke="#facd15" stroke-width="1" stroke-linecap="round"/>
  <line x1="22" y1="47" x2="32" y2="47" stroke="#facd15" stroke-width="1" stroke-linecap="round"/>

  <!-- Panel eléctrico -->
  <rect x="50" y="42" width="10" height="12" rx="1.5" fill="rgba(0,229,160,0.1)" stroke="#00e5a0" stroke-width="1.5"/>
  <line x1="53" y1="46" x2="57" y2="46" stroke="#00e5a0" stroke-width="1" stroke-linecap="round"/>
  <line x1="53" y1="49" x2="57" y2="49" stroke="#00e5a0" stroke-width="1" stroke-linecap="round"/>
  <line x1="53" y1="52" x2="57" y2="52" stroke="#00e5a0" stroke-width="1" stroke-linecap="round"/>

  <!-- Rayo en el techo -->
  <path d="M43 18 L39 26 L42 26 L38 34 L46 24 L42 24 Z" 
    fill="rgba(250,205,21,0.25)" stroke="#facd15" stroke-width="1" stroke-linejoin="round"/>
</svg>